# xmcd
#
# Track frame offsets:
#	183
#	12705
#	26383
#	39808
#	53413
#	66143
#	81308
#	96093
#	109420
#	123390
#	136865
#	149293
#
# Disc length: 2165 seconds
#
# Revision: 5
# Processed by: cddbd v1.5.2PL0 Copyright (c) Steve Scherf et al.
# Submitted via: audiograbber 1.83.01
#
DISCID=9b08730c
DTITLE=Hooker, John Lee - House of the blues
DYEAR=1960
DGENRE=Blues
TTITLE0=Walkin' the boogie
TTITLE1=Love blues
TTITLE2=Union station blues
TTITLE3=It's my own fault
TTITLE4=Leave my wife alone
TTITLE5=Ramblin' by myself
TTITLE6=Sugar mama
TTITLE7=Down at the landing
TTITLE8=Louise
TTITLE9=Ground hog blues
TTITLE10=High priced woman
TTITLE11=Women and money
EXTD=
EXTT0=
EXTT1=
EXTT2=
EXTT3=
EXTT4=
EXTT5=
EXTT6=
EXTT7=
EXTT8=
EXTT9=
EXTT10=
EXTT11=
PLAYORDER=
